HIERARCHY
ROOT Hips
{
	OFFSET 0.00000 0.00000 0.00000
	CHANNELS 6 Xposition Yposition Zposition Yrotation Zrotation Xrotation 
	JOINT Lumbar
	{
		OFFSET 0 0 0
		CHANNELS 3 Zrotation Xrotation Yrotation
		JOINT Neck
		{
			OFFSET 0.00 0.2701 0.00
			CHANNELS 3 Zrotation Xrotation Yrotation
			End Site
			{
				OFFSET 0.00 0.1379 0.00
			}
		}
		JOINT RightShoulder
		{
			OFFSET 0.0119 0.2289 0.1181
			CHANNELS 3 Zrotation Xrotation Yrotation
			JOINT RightElbow
			{
				OFFSET 0.00 -0.1475 0.00
				CHANNELS 2 Zrotation Yrotation
				JOINT RightWrist
				{
					OFFSET 0.00 -0.1605 0.00
					CHANNELS 2 Zrotation Xrotation
					End Site
					{
						OFFSET 0.0040 -0.1068 0.0006
					}
				}
			}
		}
		JOINT LeftShoulder
		{
			OFFSET 0.0119 0.2289 -0.1181
			CHANNELS 3 Zrotation Xrotation Yrotation
			JOINT LeftElbow
			{
				OFFSET 0.00 -0.1475 0.00
				CHANNELS 2 Zrotation Yrotation
				JOINT LeftWrist
				{
					OFFSET 0.00 -0.1605 0.00
					CHANNELS 2 Zrotation Xrotation
					End Site
					{
						OFFSET 0.0040 -0.1068 -0.0006
					}
				}
			}
		}
	}
	JOINT RightHip
	{
		OFFSET 0.0316 -0.0424 0.0458
		CHANNELS 3 Zrotation Xrotation Yrotation
		JOINT RightKnee
		{
			OFFSET 0.00 -0.2438 0.00
			CHANNELS 1 Zrotation
			JOINT RightAnkle
			{
				OFFSET 0.00 -0.2449 0.00
				CHANNELS 3 Zrotation Xrotation Yrotation
				End Site
				{
					OFFSET 0.1237 -0.0542 0.0051
				}
			}
		}
	}
	JOINT LeftHip
	{
		OFFSET 0.0316 -0.0424 -0.0458
		CHANNELS 3 Zrotation Xrotation Yrotation
		JOINT LeftKnee
		{
			OFFSET 0.00 -0.2438 0.00
			CHANNELS 1 Zrotation
			JOINT LeftAnkle
			{
				OFFSET 0.00 -0.2449 0.00
				CHANNELS 3 Zrotation Xrotation Yrotation
				End Site
				{
					OFFSET 0.1237 -0.0542 -0.0051
				}
			}
		}
	}
}
MOTION
Frames: 27
Frame Time: 0.02
-0.36535 -0.07358 -0.24081 -25.36698 -32.75324 9.76092 50.94339 -1.79365 -4.04878 -4.47978 -9.99804 -0.83079 169.87772 -104.54284 -90.00786 112.03932 88.2659 -79.68542 -22.8416 169.88194 77.05949 90.01163 116.71426 -59.9548 -79.69817 22.97253 64.41829 -9.83171 3.79603 -17.62783 -11.07469 -2.70257 -2.22289 50.7808 -0.65499 11.71539 -31.93409 -6.76595 3.97695 2.72012
-0.36508 -0.07341 -0.24122 -25.07464 -32.64356 9.65303 51.13445 -1.76259 -3.39287 -5.00734 -9.65684 -0.83079 169.89158 -101.679 -90.02031 112.53801 84.53664 -79.70951 -23.03698 169.88194 77.80536 90.01163 114.29162 -60.46667 -79.69828 22.97249 64.2707 -10.03855 3.04158 -17.56893 -11.10376 -2.68918 -2.21684 50.71975 -0.64255 11.76484 -31.90286 -6.74369 3.93964 2.69724
-0.3647 -0.07324 -0.24156 -24.85058 -32.52181 9.54137 51.35377 -1.71989 -2.57394 -5.5748 -9.2708 -0.83079 169.87064 -98.59825 -90.00132 112.8863 80.39787 -79.68696 -22.92532 169.88194 78.27719 90.01163 111.34356 -60.93628 -79.69796 22.97227 64.08816 -10.24665 2.15336 -17.48735 -11.12573 -2.64552 -2.19318 50.62795 -0.6155 11.85631 -31.87828 -6.72116 3.91044 2.67904
-0.36436 -0.07307 -0.24194 -24.60302 -32.405 9.43162 51.559 -1.67996 -1.82391 -6.11612 -8.90442 -0.83079 169.87731 -95.62197 -90.00783 113.15635 76.54519 -79.69453 -22.96379 169.88196 78.86698 90.01163 108.57144 -61.42607 -79.69841 22.97236 63.92021 -10.44837 1.35027 -17.41673 -11.15076 -2.61826 -2.17907 50.5479 -0.59525 11.92558 -31.85054 -6.69869 3.8781 2.65914
-0.36404 -0.0729 -0.24231 -24.32322 -32.28912 9.31908 51.76967 -1.64955 -1.09421 -6.69459 -8.53902 -0.83079 169.93602 -92.59554 -90.0598 114.06365 72.25385 -79.73486 -22.98029 169.88193 79.48127 90.01163 106.08031 -61.90818 -79.69829 22.97221 63.75468 -10.67379 0.44381 -17.34349 -11.17387 -2.57992 -2.15834 50.47568 -0.57255 12.00749 -31.82344 -6.67651 3.84344 2.63735
-0.36366 -0.07273 -0.24267 -24.12502 -32.16934 9.21313 51.97593 -1.59785 -0.28501 -7.20408 -8.16267 -0.83079 169.75034 -89.64009 -89.89318 113.58765 68.77896 -79.60832 -22.95162 169.88194 79.99348 90.01163 102.85048 -62.40444 -79.6969 22.9716 63.57925 -10.85153 -0.27988 -17.27187 -11.20257 -2.5578 -2.14757 50.38102 -0.55314 12.0739 -31.79633 -6.65355 3.8153 2.62048
-0.36317 -0.0725 -0.24304 -24.15974 -32.0367 9.11461 52.15936 -1.47928 0.71567 -7.51001 -7.75509 -0.83079 170.04481 -86.82951 -90.16004 109.49651 67.7441 -79.80949 -22.9911 169.88201 80.12568 90.01164 98.0039 -62.87008 -79.70111 22.97329 63.35601 -10.88355 -0.45377 -17.18984 -11.21957 -2.58348 -2.16477 50.22467 -0.53385 12.0789 -31.77054 -6.62956 3.80621 2.61813
-0.36263 -0.07227 -0.24342 -24.27026 -31.90144 9.02488 52.33777 -1.34165 1.78832 -7.74487 -7.34017 -0.83079 169.91802 -84.11858 -90.0391 103.99107 67.53713 -79.72073 -22.97457 169.8818 80.18864 90.01164 92.38997 -63.3686 -79.69465 22.97084 63.12886 -10.86977 -0.44126 -17.11324 -11.24728 -2.62729 -2.19328 50.04809 -0.52053 12.06829 -31.74407 -6.60463 3.8029 2.62026
-0.36213 -0.07204 -0.24379 -24.33024 -31.77105 8.9393 52.52119 -1.22007 2.82037 -8.0144 -6.9369 -0.83079 169.18455 -81.43381 -89.391 99.017 66.89266 -79.22756 -22.90147 169.88212 80.39663 90.01164 86.92113 -63.90035 -79.69697 22.97178 62.92341 -10.88627 -0.52188 -17.04796 -11.2897 -2.6656 -2.21911 49.88592 -0.51313 12.07035 -31.7159 -6.57938 3.79496 2.61901
-0.36158 -0.07181 -0.24415 -24.45964 -31.62546 8.82039 52.69508 -1.06734 3.89199 -8.2769 -6.49796 -0.83079 171.66522 -78.44346 -91.61566 94.4897 66.47302 -80.9077 -23.15366 169.88204 80.13721 90.01164 82.24642 -64.21565 -79.71437 22.97874 62.63527 -10.86404 -0.57133 -16.92588 -11.25143 -2.69128 -2.23396 49.70146 -0.46986 12.05068 -31.69609 -6.5571 3.79563 2.62348
-0.3611 -0.07157 -0.24455 -24.46266 -31.51011 8.77155 52.88599 -0.97456 4.89546 -8.5347 -6.13088 -0.83079 167.54516 -76.11121 -87.88526 88.72079 65.81102 -78.10418 -22.73218 169.88109 80.81159 90.01164 75.80135 -65.00477 -79.65809 22.95663 62.51559 -10.91012 -0.64012 -16.92096 -11.38108 -2.74801 -2.27455 49.55802 -0.50153 12.07159 -31.65904 -6.52863 3.77981 2.61718
-0.3608 -0.07132 -0.24507 -24.08845 -31.48744 8.92726 53.13594 -1.057 5.69831 -8.81335 -5.97584 -0.83079 143.62178 -75.61735 -66.81185 79.67675 64.0676 -62.0313 -20.34782 169.884 84.31471 90.01164 64.15001 -66.95452 -79.74883 22.99269 62.89085 -11.16879 -0.80328 -17.26187 -11.99597 -2.88561 -2.38385 49.54176 -0.75076 12.21168 -31.57085 -6.48146 3.71537 2.57888
-0.36057 -0.07107 -0.24564 -23.58582 -31.49389 9.15089 53.40118 -1.19959 6.42829 -9.08664 -5.89165 -0.83079 113.37204 -75.77547 -39.9729 69.47166 62.08734 -41.63398 -17.30836 169.8795 88.71908 90.01163 50.83998 -69.39583 -79.70649 22.97706 63.43076 -11.4956 -0.99247 -17.71632 -12.775 -3.05397 -2.51861 49.56607 -1.07316 12.39232 -31.46599 -6.42844 3.63439 2.52977
-0.3603 -0.07082 -0.2462 -23.14812 -31.48134 9.33462 53.65193 -1.31138 7.18739 -9.35114 -5.76724 -0.83079 87.13526 -75.6058 -16.38946 59.92144 60.36229 -23.84778 -14.64957 169.88117 92.5576 90.01162 38.62422 -71.71716 -79.48972 22.89105 63.87638 -11.7826 -1.17217 -18.10329 -13.4631 -3.20878 -2.6416 49.56594 -1.35402 12.55197 -31.37117 -6.37931 3.56203 2.48633
-0.36006 -0.07055 -0.24673 -22.68575 -31.49259 9.55621 53.93362 -1.43702 7.96597 -9.65977 -5.67545 -0.83079 56.12822 -75.57049 10.00637 49.77247 58.06599 -3.33099 -11.64784 169.8931 97.04796 90.01162 24.94629 -73.64587 -80.24104 23.1885 64.4033 -12.10452 -1.33581 -18.55703 -14.22059 -3.36275 -2.76608 49.58995 -1.66949 12.72181 -31.26595 -6.32497 3.48524 2.43987
-0.35978 -0.07032 -0.24731 -22.24281 -31.46181 9.71569 54.15548 -1.54847 8.68576 -9.87715 -5.53387 -0.83079 33.4992 -75.41131 31.76233 40.62863 56.86344 12.52937 -9.19377 169.85421 100.40225 90.0116 13.92705 -76.45491 -78.97374 22.69099 64.80095 -12.3715 -1.5412 -18.89912 -14.87233 -3.5251 -2.89305 49.57418 -1.93089 12.88037 -31.17842 -6.28005 3.41362 2.39706
-0.35942 -0.07019 -0.24801 -21.88848 -31.30278 9.68065 54.20046 -1.60503 9.25944 -9.8353 -5.22712 -0.83079 36.08292 -74.73152 40.58739 34.42349 58.99228 14.40661 -8.51998 169.91717 100.34228 90.01146 10.68836 -82.04599 -71.91374 19.8724 64.79328 -12.46134 -1.85717 -18.90074 -15.19232 -3.70684 -3.02334 49.43367 -2.01872 12.99738 -31.14398 -6.263 3.36059 2.36714
-0.35902 -0.0701 -0.24876 -21.55706 -31.10137 9.5818 54.18614 -1.6455 9.77599 -9.70381 -4.86992 -0.83079 47.21971 -73.90873 44.33317 29.30122 62.183 11.46297 -8.40382 169.88684 99.11927 90.01129 10.18098 -88.42517 -62.87481 16.28061 64.6512 -12.49526 -2.21368 -18.78697 -15.40008 -3.89512 -3.15468 49.25266 -2.0506 13.10209 -31.12789 -6.25556 3.31318 2.34117
-0.35864 -0.07 -0.24948 -21.21247 -30.92278 9.51643 54.20431 -1.69415 10.31989 -9.61926 -4.54252 -0.83079 54.09495 -73.16199 49.51394 23.76771 64.71179 10.76452 -7.95741 169.73844 98.46568 90.01115 8.40449 -94.12493 -54.9053 13.13482 64.5762 -12.56095 -2.55301 -18.72872 -15.6589 -4.07788 -3.28376 49.09367 -2.11249 13.21242 -31.10327 -6.24342 3.26304 2.31329
-0.35828 -0.06988 -0.2502 -20.87517 -30.73041 9.43493 54.19995 -1.74137 10.8571 -9.50809 -4.18807 -0.83079 62.33004 -72.38684 58.45009 17.84505 67.972 9.97357 -7.79746 170.25706 97.66908 90.01098 6.68449 -101.16813 -46.20876 9.59131 64.48234 -12.60275 -2.89282 -18.66097 -15.92324 -4.2726 -3.42136 48.92123 -2.15833 13.32281 -31.07881 -6.23241 3.21332 2.28566
-0.35787 -0.06979 -0.25094 -20.52971 -30.55602 9.37046 54.22779 -1.78678 11.39352 -9.43143 -3.87767 -0.83079 69.84694 -71.63408 58.44991 13.01327 69.98652 8.192 -7.20065 169.37711 96.88475 90.01083 5.52053 -105.63158 -38.56372 6.68882 64.3928 -12.67941 -3.23477 -18.58473 -16.14726 -4.44339 -3.54103 48.76617 -2.22242 13.43118 -31.05865 -6.22148 3.16399 2.25845
-0.35735 -0.06977 -0.25175 -20.15744 -30.44389 9.37275 54.3627 -1.83229 11.95964 -9.46985 -3.69603 -0.83079 73.3158 -70.92616 33.5371 10.87 68.10505 4.67418 -5.10028 164.55127 96.39415 90.01092 5.20607 -102.44281 -34.26273 5.78628 64.35481 -12.87263 -3.62869 -18.50769 -16.2864 -4.54765 -3.6116 48.67318 -2.35868 13.52227 -31.04543 -6.20806 3.11688 2.23272
-0.3568 -0.06977 -0.25258 -19.77665 -30.35073 9.39327 54.5312 -1.876 12.52382 -9.54655 -3.56117 -0.83079 75.793 -70.25204 0.04596 9.80372 64.96961 0.33573 -2.57259 158.34413 95.95596 90.01099 5.36903 -96.68518 -31.09819 5.54973 64.32369 -13.1016 -4.015 -18.42664 -16.38793 -4.62716 -3.6638 48.59818 -2.51356 13.61342 -31.03606 -6.19449 3.0697 2.20716
-0.35625 -0.06975 -0.2534 -19.3994 -30.24729 9.40239 54.68194 -1.91949 13.0777 -9.60718 -3.4079 -0.83079 78.73855 -69.59337 -28.56766 8.28951 62.54006 -3.52823 -0.35151 152.83568 95.50561 90.01091 5.33298 -92.32859 -27.44124 4.9799 64.28418 -13.30915 -4.36514 -18.35043 -16.50685 -4.71712 -3.72392 48.51196 -2.65399 13.71507 -31.02528 -6.18127 3.02083 2.18063
-0.35573 -0.06974 -0.25424 -19.02389 -30.14947 9.42247 54.84153 -1.96688 13.67735 -9.65905 -3.24062 -0.83079 81.90557 -68.80046 -61.45795 6.63889 59.57921 -7.97849 2.31795 147.01216 94.96666 90.01145 5.31383 -87.03686 -23.60898 4.50602 64.26239 -13.53539 -4.87494 -18.25724 -16.6218 -4.81091 -3.78609 48.43696 -2.81695 13.77542 -31.01371 -6.16721 2.9789 2.15771
-0.35516 -0.06973 -0.25505 -18.64291 -30.0449 9.42488 54.99094 -2.00586 14.18118 -9.73945 -3.11459 -0.83079 84.26292 -68.29647 -87.45017 5.51187 57.4058 -11.35001 4.17115 141.53344 94.63897 90.01075 5.33939 -83.04331 -20.44331 4.0084 64.20696 -13.73346 -5.06125 -18.20031 -16.73614 -4.89047 -3.83937 48.34368 -2.93921 13.91754 -31.00444 -6.15473 2.92308 2.1276
-0.35447 -0.06969 -0.25578 -18.24522 -29.91794 9.37409 55.1084 -2.02261 14.42782 -9.88966 -3.08867 -0.83079 84.61385 -68.58574 -91.94832 5.58572 57.77474 -11.44011 3.58916 137.2147 94.89217 90.00629 5.34494 -83.5144 -18.80212 3.21762 64.05796 -13.83157 -4.25567 -18.24196 -16.87053 -4.93923 -3.87477 48.19313 -2.93519 14.32412 -31.00067 -6.14653 2.82318 2.07454
